<?xml version="1.0" standalone="no"?>
<!DOCTYPE svg PUBLIC "-//W3C//DTD SVG 20010904//EN"
 "http://www.w3.org/TR/2001/REC-SVG-20010904/DTD/svg10.dtd">
<svg version="1.0" xmlns="http://www.w3.org/2000/svg"
 width="64.000000pt" height="64.000000pt" viewBox="0 0 64.000000 64.000000"
 preserveAspectRatio="xMidYMid meet">

<g transform="translate(0.000000,64.000000) scale(0.100000,-0.100000)"
fill="#000000" stroke="none">
<path d="M188 593 c6 -2 18 -2 25 0 6 3 1 5 -13 5 -14 0 -19 -2 -12 -5z"/>
<path d="M130 565 c-13 -14 -22 -26 -19 -28 2 -1 16 10 31 25 15 15 23 28 19
28 -4 0 -18 -11 -31 -25z"/>
<path d="M258 562 c15 -15 29 -26 31 -25 6 4 -41 53 -50 53 -4 0 4 -13 19 -28z"/>
<path d="M172 538 c-19 -39 -2 -98 27 -98 21 0 41 36 37 65 -7 56 -43 74 -64
33z m49 -4 c12 -15 11 -16 -9 -10 -12 4 -22 3 -22 -2 0 -5 9 -12 20 -15 24 -6
26 -30 4 -47 -12 -11 -18 -10 -32 4 -16 17 -16 18 6 11 13 -4 22 -2 22 4 0 6
-7 11 -15 11 -21 0 -30 27 -15 45 16 19 24 19 41 -1z"/>
<path d="M398 493 c5 -83 9 -90 11 -20 0 37 -2 67 -7 67 -4 0 -6 -21 -4 -47z"/>
<path d="M354 508 l-19 -23 23 19 c21 18 27 26 19 26 -2 0 -12 -10 -23 -22z"/>
<path d="M459 484 c3 -44 2 -46 -20 -39 -28 9 -24 3 9 -14 22 -11 22 -11 22
44 0 30 -3 55 -8 55 -4 0 -5 -21 -3 -46z"/>
<path d="M102 500 c0 -14 2 -19 5 -12 2 6 2 18 0 25 -3 6 -5 1 -5 -13z"/>
<path d="M292 500 c0 -14 2 -19 5 -12 2 6 2 18 0 25 -3 6 -5 1 -5 -13z"/>
<path d="M110 461 c0 -4 11 -18 24 -30 14 -13 22 -29 19 -37 -7 -19 1 -18 39
6 32 20 32 21 6 14 -22 -5 -34 0 -58 24 -16 17 -30 27 -30 23z"/>
<path d="M276 453 c-3 -7 -16 -18 -28 -23 -19 -7 -16 -9 20 -9 42 -1 58 13 25
22 -14 4 -13 5 4 6 12 0 24 -5 26 -11 4 -8 6 -7 6 3 1 21 -46 32 -53 12z"/>
<path d="M50 424 c-16 -18 -3 -65 20 -72 11 -4 10 -1 -3 12 -24 24 -21 55 6
66 15 6 17 9 6 9 -9 1 -22 -6 -29 -15z"/>
<path d="M96 403 c-6 -14 -5 -15 5 -6 7 7 10 15 7 18 -3 3 -9 -2 -12 -12z"/>
<path d="M480 416 c0 -2 8 -10 18 -17 15 -13 16 -12 3 4 -13 16 -21 21 -21 13z"/>
<path d="M110 375 c-12 -19 -20 -39 -18 -43 2 -5 13 11 25 35 27 52 23 56 -7
8z"/>
<path d="M439 353 c-13 -17 -13 -17 6 -3 11 8 22 16 24 17 2 2 0 3 -6 3 -6 0
-17 -8 -24 -17z"/>
<path d="M568 363 c18 -4 22 -11 22 -45 0 -25 -7 -50 -17 -62 -18 -21 -18 -21
5 -2 17 15 22 30 22 68 0 46 -1 48 -27 47 -24 -2 -25 -2 -5 -6z"/>
<path d="M82 280 c0 -19 2 -27 5 -17 2 9 2 25 0 35 -3 9 -5 1 -5 -18z"/>
<path d="M525 210 c-9 -16 -13 -30 -11 -30 3 0 12 14 21 30 9 17 13 30 11 30
-3 0 -12 -13 -21 -30z"/>
<path d="M90 224 c0 -6 14 -30 30 -52 17 -24 30 -54 30 -71 0 -51 54 -68 68
-20 2 8 -2 5 -10 -5 -21 -28 -48 -14 -48 24 0 27 2 30 19 20 38 -20 35 -10 -3
14 -21 13 -49 41 -62 62 -13 21 -24 34 -24 28z"/>
<path d="M489 153 c-13 -16 -12 -17 4 -4 9 7 17 15 17 17 0 8 -8 3 -21 -13z"/>
<path d="M440 124 c-14 -8 -17 -13 -8 -10 12 4 18 -2 20 -22 3 -23 4 -22 9 11
3 20 5 37 4 37 0 -1 -11 -8 -25 -16z"/>
<path d="M300 103 c77 -3 87 -6 95 -26 6 -12 19 -23 30 -24 17 -3 17 -2 -2 7
-13 5 -23 18 -23 30 0 19 -6 20 -92 18 l-93 -2 85 -3z"/>
</g>
</svg>
